# xmcd CD database file
#
# Track frame offsets:
#	150
#	19217
#	31000
#	45919
#	64009
#	77340
#	97752
#	122696
#	133521
#	150480
#	172338
#	189662
#
# Disc length: 3016 seconds
#
# Revision: 0
# Processed by: cddbd v1.5.2PL0 Copyright (c) Steve Scherf et al.
# Submitted via: CDex 1.70beta2
#
DISCID=880bc60c
DTITLE=Heartward - Train of Life Tour 97-99
DYEAR=1999
DGENRE=Country
TTITLE0=Road to nowehere
TTITLE1=rockin' home the Blues
TTITLE2=feelin' bad
TTITLE3=rollin' home again
TTITLE4=tonight
TTITLE5=losin' gambler
TTITLE6=drop in the Rain
TTITLE7=busy Lizzy
TTITLE8=rest my Bones
TTITLE9=small Town Blues
TTITLE10=why don't you look at me
TTITLE11=Train of Life
EXTD=YEAR: 1999
EXTT0=
EXTT1=
EXTT2=
EXTT3=
EXTT4=
EXTT5=
EXTT6=
EXTT7=
EXTT8=
EXTT9=
EXTT10=
EXTT11=
PLAYORDER=
